<svg width="1212" height="295" viewBox="0 0 1212 295" fill="none" xmlns="http://www.w3.org/2000/svg">
<mask id="mask0_478_16723" style="mask-type:luminance" maskUnits="userSpaceOnUse" x="0" y="0" width="1212" height="295">
<path d="M1212 0H0V294.161H1212V0Z" fill="#A3A3A3"/>
</mask>
<g mask="url(#mask0_478_16723)">
<path fill-rule="evenodd" clip-rule="evenodd" d="M115.256 294.161C133.923 294.161 150.803 277.089 162.87 249.6C192.618 253.189 216.63 245.117 226.727 225.016C236.614 205.3 231.103 178.038 214.344 150.74C230.664 123.74 235.947 96.8633 226.167 77.3751C216.508 58.1142 194.072 49.9023 166.064 52.3888C153.892 20.3464 135.648 0 115.256 0C94.8632 0 76.4536 20.5388 64.2663 52.8436C36.864 50.7254 14.9572 58.9724 5.44966 77.935C-4.25469 97.283 0.892696 123.933 16.9405 150.74C0.453653 177.845 -4.90569 204.88 4.90465 224.438C14.8512 244.259 38.3174 252.366 67.4606 249.179C79.5422 276.914 96.4833 294.161 115.256 294.161ZM79.8142 247.218C90.094 270.016 103.886 283.971 119.056 283.971C134.226 283.971 147.821 270.751 158.6 249.022C144.959 246.903 130.244 242.438 115.18 235.644C103.023 241.02 91.1087 244.89 79.8142 247.218ZM98.5114 227.222C90.2906 230.287 82.282 232.598 74.6518 234.138C71.7147 225.647 69.1863 216.313 67.1579 206.298C72.184 210.238 77.4374 214.055 82.888 217.679C88.0807 221.129 93.2883 224.316 98.4965 227.222H98.5114ZM115.241 220.061C124.233 215.718 133.362 210.536 142.431 204.495C155.572 195.758 167.457 186.039 177.752 175.849C178.66 166.569 179.144 156.956 179.144 147.081C179.144 134.456 178.357 122.217 176.889 110.608C168.214 102.484 158.555 94.7622 148.032 87.7753C137.087 80.5087 126.02 74.5381 115.165 69.8811C104.734 74.4508 94.1057 80.2292 83.599 87.2153C76.9984 91.6098 70.7155 96.2854 64.8264 101.171C62.6767 115.528 61.511 130.972 61.511 147.081C61.511 160.475 62.3133 173.432 63.8273 185.672C71.609 192.501 80.1172 199.014 89.216 205.072C97.8912 210.833 106.626 215.841 115.241 220.061ZM131.909 227.327C137.526 224.246 143.143 220.831 148.744 217.119C158.086 210.903 166.806 204.18 174.83 197.123C172.271 211.393 168.683 224.508 164.293 235.96C154.15 234.541 143.233 231.652 131.909 227.327ZM178.206 194.076C175.859 209.502 172.392 223.773 168.017 236.432C193.012 239.111 212.739 232.51 220.96 216.139C228.863 200.362 224.926 177.863 211.952 154.575C203.262 168.11 191.831 181.575 178.206 194.076ZM206.744 139.394C220.218 116.597 224.563 94.534 216.615 78.6709C208.908 63.3147 190.787 55.961 167.684 56.7833C173.043 72.0344 177.085 89.7019 179.402 108.91C189.939 118.645 199.128 128.941 206.729 139.394H206.744ZM163.823 56.9936C169.349 71.089 173.649 87.7402 176.268 106.056C168.017 98.7019 158.979 91.6978 149.289 85.2544C139.222 78.5658 129.048 72.8746 119.026 68.2169C134.831 61.7035 150.107 57.9741 163.809 56.9765L163.823 56.9936ZM162.112 52.8086C147.518 54.5951 131.546 59.1647 115.18 66.5014C101.887 60.6709 88.8827 56.6432 76.6805 54.4549C87.2027 27.2446 102.296 10.2079 119.056 10.2079C135.815 10.2079 150.969 26.5795 162.112 52.8086ZM111.305 68.2699C98.7538 63.2096 86.5516 59.8999 75.2275 58.3416C71.1397 69.7581 67.8242 82.785 65.4774 96.9684C70.8367 92.6954 76.4536 88.5984 82.3278 84.6937C91.9713 78.2854 101.691 72.8046 111.305 68.2699ZM51.0496 109.435C53.3357 90.2447 57.3324 72.5951 62.6464 57.3261C40.1644 56.8363 22.5724 64.19 15.0178 79.2487C7.13013 94.9717 11.3389 116.754 24.5254 139.342C31.9285 129.098 40.8457 118.995 51.0496 109.435ZM19.3325 154.61C27.8106 167.917 38.9381 181.189 52.2305 193.551C54.5468 208.995 57.9986 223.3 62.3436 235.995C37.9389 238.323 18.7421 231.67 10.6576 215.578C2.81541 199.942 6.6154 177.687 19.3174 154.627L19.3325 154.61ZM26.5995 142.773C33.1699 133.056 41.209 123.355 50.5349 114.11C49.4448 124.704 48.8544 135.752 48.8544 147.081C48.8544 155.678 49.1875 164.1 49.8233 172.295C40.5731 162.647 32.7309 152.649 26.5843 142.756L26.5995 142.773ZM204.67 142.791C198.326 152.894 190.227 163.102 180.643 172.925C181.31 164.537 181.673 155.888 181.673 147.081C181.673 135.541 181.067 124.301 179.931 113.532C189.576 122.935 197.902 132.845 204.67 142.791Z" fill="black" fill-opacity="0.72"/>
<path d="M309.357 80.491H291.932L288.358 91.3997H280.38L296.837 41.812H305.012L321.771 91.3997H313.051L309.357 80.491ZM306.935 73.0843L300.576 54.2619L294.399 73.0843H306.919H306.935Z" fill="black" fill-opacity="0.72"/>
<path d="M356.61 41.812H373.673C377.866 41.812 381.363 43.3002 384.134 46.2945C386.92 49.2717 388.312 53.1934 388.312 58.0435C388.312 62.8935 386.92 66.8862 384.134 69.8626C381.348 72.839 377.866 74.3451 373.673 74.3451H364.786V91.4168H356.626V41.8299L356.61 41.812ZM364.77 65.2399H373.718C375.459 65.2399 376.913 64.557 378.078 63.2089C379.244 61.808 379.834 60.0924 379.834 58.0264C379.834 55.9603 379.244 54.279 378.078 52.9131C376.942 51.5651 375.489 50.8821 373.718 50.8821H364.77V65.2228V65.2399Z" fill="black" fill-opacity="0.72"/>
<path d="M444.603 80.491H427.177L423.604 91.3997H415.626L432.082 41.812H440.242L457.002 91.3997H448.281L444.587 80.491H444.603ZM442.18 73.0843L435.822 54.2619L429.645 73.0843H442.165H442.18Z" fill="black" fill-opacity="0.72"/>
<path d="M508.669 40.2725C512.575 40.2725 516.133 41.4632 519.312 43.8438C522.537 46.173 525.095 49.3426 527.003 53.3516L519.433 57.5545C516.814 51.7762 513.226 48.887 508.669 48.887C505.08 48.887 502.098 50.6205 499.707 54.0696C497.375 57.4665 496.194 61.6686 496.194 66.6588C496.194 71.6491 497.359 75.852 499.707 79.2489C502.053 82.6108 505.035 84.2913 508.669 84.2913C510.879 84.2913 512.938 83.5733 514.846 82.1201C516.738 80.632 518.252 78.6711 519.387 76.2367L526.836 80.3695C525.019 84.2913 522.506 87.3557 519.266 89.5969C516.042 91.7852 512.514 92.8887 508.684 92.8887C502.553 92.8887 497.526 90.4372 493.62 85.5521C489.714 80.614 487.746 74.3108 487.746 66.6588C487.746 59.0076 489.729 52.7566 493.681 47.7664C497.678 42.7761 502.673 40.2896 508.684 40.2896L508.669 40.2725Z" fill="black" fill-opacity="0.72"/>
<path d="M595.726 91.3997H587.551V71.1055H570.913V91.3997H562.752V41.812H570.913V62.0361H587.551V41.812H595.726V91.3997Z" fill="black" fill-opacity="0.72"/>
<path d="M658.826 50.902H641.764V62.0903H654.648V71.1776H641.764V82.2966H658.826V91.3838H633.604V41.7969H658.826V50.8841V50.902Z" fill="black" fill-opacity="0.72"/>
<path d="M280.08 133.247H313.765C330.994 133.247 344.543 138.85 354.414 150.039C364.391 161.122 369.372 175.34 369.372 192.675C369.372 210.009 364.391 224.297 354.414 235.486C344.438 246.674 330.842 252.277 313.614 252.277H280.065V133.247H280.08ZM302.728 158.443V227.098H312.887C317.247 227.098 321.259 226.538 324.938 225.417C328.707 224.297 332.205 222.511 335.399 220.042C338.685 217.574 341.258 214.054 343.09 209.466C344.922 204.774 345.846 199.171 345.846 192.675C345.846 186.178 344.922 180.645 343.09 176.058C341.243 171.47 338.685 167.951 335.399 165.482C332.205 163.014 328.768 161.227 325.089 160.106C321.41 158.986 317.338 158.426 312.887 158.426H302.728V158.443Z" fill="black" fill-opacity="0.72"/>
<path d="M441.796 229.112H401.131L393.577 252.277H371.503L410.851 133.247H433.499L473.725 252.277H449.471L441.781 229.112H441.796ZM435.104 208.976L421.313 167.67L407.808 208.976H435.104Z" fill="black" fill-opacity="0.72"/>
<path d="M549.106 158.445H519.191V252.296H496.542V158.445H467.066V133.266H549.106V158.445Z" fill="black" fill-opacity="0.72"/>
<path d="M612.803 229.112H572.154L564.599 252.277H542.526L581.874 133.247H604.522L644.748 252.277H620.494L612.803 229.112ZM606.127 208.976L592.335 167.67L578.831 208.976H606.127Z" fill="black" fill-opacity="0.72"/>
<path d="M718.716 158.443H678.929V180.261H709.135V205.439H678.929V252.277H656.283V133.247H718.716V158.426V158.443Z" fill="black" fill-opacity="0.72"/>
<path d="M820.12 133.247V208.293C820.026 222.843 815.952 234.365 807.913 242.874C799.981 251.385 789.564 255.639 776.697 255.639C763.829 255.639 753.608 251.385 745.481 242.874C737.347 234.365 733.341 222.843 733.428 208.293V133.247H755.938V208.45C755.938 215.157 757.877 220.532 761.756 224.56C765.721 228.481 770.718 230.442 776.71 230.442C782.71 230.442 787.659 228.481 791.517 224.56C795.395 220.532 797.375 215.157 797.469 208.45V133.247H820.12Z" fill="black" fill-opacity="0.72"/>
<path d="M876.101 129.55C886.74 129.55 896.186 132.352 904.408 137.937L894.389 159.755C887.137 156.165 880.249 154.379 873.764 154.379C864.378 154.379 859.685 158.021 859.685 165.288C859.685 168.877 861.476 171.889 865.065 174.357C868.741 176.704 873.966 179.278 880.747 182.079C887.622 184.758 892.8 187.28 896.281 189.626C905.667 195.894 910.36 205.297 910.36 217.834C910.36 229.583 906.637 238.828 899.169 245.534C891.722 252.258 882.43 255.602 871.3 255.602C865.004 255.602 858.48 254.254 851.693 251.575C844.912 248.896 839.647 245.815 835.876 242.348L848.077 221.371C858.433 228.427 867.819 231.492 876.249 230.599C879.535 230.266 882.262 228.917 884.383 226.572C886.605 224.225 887.527 221.371 887.137 218.009C886.74 214.875 884.47 212.301 880.309 210.287C876.141 208.169 870.728 205.7 864.048 202.898C857.463 200.096 852.09 196.805 847.922 192.988C840.28 185.827 836.448 176.932 836.448 166.303C836.448 161.05 837.223 156.288 838.765 152.033C840.307 147.778 842.353 144.311 844.865 141.632C847.484 138.831 850.528 136.536 854.009 134.751C857.49 132.842 861.079 131.511 864.762 130.724C868.438 129.936 872.209 129.55 876.081 129.55H876.101Z" fill="black" fill-opacity="0.72"/>
<path d="M948.929 252.277H926.278V133.247H948.929V252.277Z" fill="black" fill-opacity="0.72"/>
<path d="M979.579 147.364C989.935 135.491 1002.96 129.574 1018.64 129.574C1034.32 129.574 1047.24 135.509 1057.41 147.364C1067.68 159.112 1072.81 174.048 1072.81 192.188C1072.81 210.328 1067.83 225.316 1057.85 237.17C1047.87 248.919 1034.81 255.083 1018.64 255.642C1002.96 255.642 989.935 249.655 979.579 237.677C969.317 225.596 964.18 210.485 964.18 192.346C964.18 174.205 969.317 159.217 979.579 147.346V147.364ZM1018.64 153.404C1009.25 153.404 1001.74 157.046 996.123 164.312C990.507 171.579 987.706 180.876 987.706 192.188C987.706 203.499 990.507 212.954 996.123 220.554C1001.83 228.047 1009.34 231.795 1018.64 231.795C1027.93 231.795 1035.47 228.047 1041 220.554C1046.51 213.059 1049.28 203.656 1049.28 192.346C1049.28 181.034 1046.53 171.807 1041 164.646C1035.58 157.379 1028.13 153.614 1018.64 153.404Z" fill="black" fill-opacity="0.72"/>
<path d="M1173.3 252.277H1150.06L1109.26 178.579V252.277H1088.07V133.247H1109.7L1152.11 207.61V133.247H1173.3V252.277Z" fill="black" fill-opacity="0.72"/>
<path d="M1193 136.889H1187.87V153.102H1184.6V136.889H1179.56V133.247H1193V136.889ZM1212 153.12H1208.85V140.373L1204.34 150.214H1202.25L1197.74 140.373L1197.71 153.12H1194.65V133.264H1197.73L1203.39 145.398L1208.81 133.264H1211.93L1211.95 153.12H1212Z" fill="black" fill-opacity="0.72"/>
</g>
</svg>
