<svg width="1535" height="692" viewBox="0 0 1535 692" fill="none" xmlns="http://www.w3.org/2000/svg">
<path d="M852.086 137.403L1057.73 345.999L852.086 554.595V471.157L975.475 345.999L852.086 220.841V137.403Z" fill="#A3A3A3"/>
<path d="M996.036 137.403L1201.69 345.999L996.036 554.595V471.157L1119.42 345.999L996.036 220.841V137.403Z" fill="#A3A3A3"/>
<path d="M1139.99 137.403L1345.64 345.999L1139.99 554.595V471.157L1263.38 345.999L1139.99 220.841V137.403Z" fill="#A3A3A3"/>
<path d="M215.557 200.581L199.482 245.452H192.924L211.421 196.223H215.648L215.557 200.581ZM229.015 245.452L212.917 200.581L212.814 196.223H217.053L235.618 245.452H229.015ZM228.181 227.223V232.565H200.921V227.223H228.181Z" fill="#A3A3A3"/>
<path d="M260.023 226.145H247.056V220.837H260.023L260.755 220.826L261.462 220.79L262.148 220.732L262.8 220.64L263.428 220.536L264.022 220.397L264.593 220.246L265.13 220.06L265.633 219.852L266.113 219.62L266.57 219.366L267.004 219.098L267.404 218.81L267.781 218.496L268.135 218.172L268.466 217.824L268.763 217.453L269.038 217.071L269.288 216.665L269.517 216.236L269.723 215.796L269.917 215.344L270.077 214.881L270.226 214.406L270.34 213.919L270.443 213.421L270.522 212.91L270.568 212.389L270.603 211.856L270.614 211.3L270.603 210.801L270.568 210.303L270.522 209.805L270.443 209.318L270.34 208.843L270.226 208.368L270.077 207.904L269.917 207.441L269.723 206.988L269.517 206.537L269.288 206.097L269.038 205.679L268.763 205.274L268.466 204.891L268.135 204.521L267.781 204.173L267.404 203.836L267.004 203.523L266.57 203.234L266.113 202.956L265.633 202.689L265.13 202.458L264.593 202.249L264.022 202.063L263.428 201.913L262.8 201.785L262.148 201.693L261.462 201.623L260.755 201.577L260.023 201.565H248.552V245.452H242.121V196.223H260.023L261.097 196.246L262.148 196.304L263.165 196.397L264.148 196.536L265.096 196.71L266.009 196.918L266.89 197.173L267.735 197.451L268.546 197.787L269.323 198.146L270.054 198.552L270.763 198.981L271.437 199.445L272.065 199.931L272.659 200.453L273.219 200.997L273.744 201.577L274.224 202.191L274.67 202.829L275.081 203.489L275.458 204.184L275.79 204.88L276.087 205.61L276.338 206.351L276.555 207.116L276.737 207.904L276.875 208.704L276.978 209.526L277.035 210.372L277.046 211.23L277.035 212.169L276.978 213.073L276.875 213.953L276.737 214.799L276.555 215.622L276.338 216.422L276.087 217.187L275.79 217.917L275.458 218.636L275.081 219.319L274.67 219.968L274.224 220.594L273.744 221.185L273.219 221.741L272.659 222.263L272.065 222.761L271.437 223.224L270.763 223.654L270.054 224.059L269.323 224.418L268.546 224.754L267.735 225.044L266.89 225.299L266.009 225.519L265.096 225.716L264.148 225.866L263.165 225.994L262.148 226.076L261.097 226.133L260.023 226.145Z" fill="#A3A3A3"/>
<path d="M303.152 200.581L287.088 245.452H280.519L299.016 196.223H303.254L303.152 200.581ZM316.621 245.452L300.512 200.581L300.421 196.223H304.648L323.213 245.452H316.621ZM315.787 227.223V232.565H288.516V227.223H315.787Z" fill="#A3A3A3"/>
<path d="M359.019 229.802H365.417L365.303 230.729L365.154 231.633L364.971 232.514L364.754 233.383L364.503 234.229L364.228 235.052L363.908 235.851L363.566 236.639L363.189 237.405L362.778 238.157L362.332 238.876L361.852 239.571L361.338 240.232L360.79 240.858L360.207 241.461L359.59 242.028L358.927 242.573L358.242 243.082L357.511 243.558L356.745 244.01L355.945 244.404L355.111 244.774L354.232 245.088L353.318 245.366L352.37 245.598L351.375 245.794L350.336 245.945L349.273 246.049L348.165 246.107L347.011 246.131L346.166 246.119L345.343 246.073L344.521 245.991L343.721 245.876L342.944 245.725L342.167 245.551L341.413 245.343L340.681 245.099L339.95 244.821L339.254 244.508L338.568 244.172L337.906 243.813L337.254 243.419L336.626 243.002L336.02 242.55L335.438 242.075L334.866 241.576L334.318 241.055L333.793 240.499L333.278 239.907L332.798 239.305L332.33 238.667L331.885 237.995L331.462 237.311L331.062 236.604L330.685 235.874L330.342 235.121L330.011 234.345L329.703 233.534L329.417 232.711L329.165 231.853L328.937 230.985L328.731 230.092L328.56 229.177L328.412 228.249L328.297 227.299L328.206 226.326L328.137 225.34L328.092 224.332L328.08 223.313V218.41L328.092 217.391L328.137 216.383L328.206 215.397L328.297 214.424L328.412 213.486L328.56 212.558L328.731 211.642L328.937 210.762L329.165 209.892L329.417 209.046L329.703 208.213L330.011 207.401L330.342 206.613L330.696 205.86L331.073 205.118L331.473 204.412L331.896 203.728L332.353 203.067L332.821 202.418L333.312 201.804L333.839 201.224L334.387 200.657L334.946 200.124L335.529 199.625L336.134 199.15L336.763 198.698L337.414 198.281L338.088 197.887L338.774 197.516L339.482 197.18L340.213 196.867L340.956 196.589L341.722 196.346L342.51 196.137L343.31 195.963L344.121 195.813L344.966 195.697L345.823 195.616L346.691 195.569L347.582 195.558L348.668 195.581L349.719 195.639L350.724 195.743L351.707 195.894L352.655 196.079L353.569 196.311L354.449 196.577L355.295 196.891L356.106 197.25L356.882 197.655L357.625 198.084L358.333 198.559L359.008 199.057L359.647 199.59L360.253 200.146L360.824 200.749L361.372 201.375L361.875 202.047L362.344 202.742L362.778 203.461L363.189 204.215L363.566 204.99L363.908 205.778L364.228 206.602L364.503 207.448L364.754 208.316L364.971 209.209L365.154 210.124L365.303 211.064L365.417 212.025H359.019L358.916 211.341L358.79 210.68L358.665 210.044L358.516 209.418L358.345 208.815L358.162 208.236L357.968 207.668L357.751 207.135L357.522 206.602L357.282 206.104L357.02 205.617L356.734 205.153L356.425 204.701L356.094 204.284L355.752 203.89L355.374 203.519L354.986 203.16L354.575 202.836L354.141 202.534L353.684 202.244L353.204 201.99L352.689 201.758L352.152 201.561L351.582 201.387L350.987 201.236L350.37 201.108L349.707 201.016L349.033 200.947L348.325 200.912L347.582 200.9L346.942 200.912L346.314 200.947L345.708 201.005L345.115 201.097L344.544 201.213L343.972 201.352L343.435 201.514L342.899 201.7L342.384 201.908L341.881 202.152L341.402 202.407L340.933 202.684L340.488 202.997L340.054 203.311L339.642 203.658L339.242 204.029L338.854 204.412L338.477 204.817L338.123 205.246L337.78 205.698L337.46 206.162L337.163 206.648L336.877 207.158L336.603 207.68L336.352 208.224L336.112 208.78L335.884 209.36L335.677 209.962L335.495 210.577L335.312 211.214L335.152 211.863L335.015 212.524L334.889 213.196L334.786 213.891L334.695 214.598L334.616 215.316L334.558 216.058L334.512 216.799L334.489 217.564L334.478 218.341V223.313L334.489 224.031L334.512 224.738L334.546 225.445L334.604 226.14L334.661 226.824L334.741 227.496L334.946 228.817L335.072 229.466L335.209 230.103L335.38 230.741L335.552 231.344L335.746 231.946L335.952 232.525L336.169 233.093L336.409 233.638L336.66 234.171L336.934 234.693L337.22 235.202L337.517 235.689L337.825 236.153L338.157 236.604L338.511 237.034L338.877 237.45L339.254 237.833L339.654 238.204L340.065 238.552L340.499 238.876L340.945 239.189L341.413 239.479L341.893 239.733L342.395 239.965L342.91 240.162L343.447 240.336L343.995 240.487L344.567 240.615L345.149 240.707L345.754 240.776L346.371 240.811L347.011 240.823L347.822 240.811L348.587 240.776L349.319 240.707L350.027 240.615L350.701 240.499L351.33 240.348L351.935 240.174L352.507 239.977L353.043 239.757L353.546 239.502L354.026 239.235L354.472 238.934L354.895 238.61L355.306 238.273L355.683 237.903L356.036 237.508L356.368 237.103L356.677 236.662L356.951 236.199L357.213 235.724L357.465 235.214L357.693 234.693L357.911 234.148L358.104 233.592L358.299 233.012L358.47 232.409L358.631 231.784L358.767 231.146L358.904 230.485L359.019 229.802Z" fill="#A3A3A3"/>
<path d="M405.848 217.384V222.692H379.583V217.384H405.848ZM380.576 196.223V245.452H374.144V196.223H380.576ZM411.447 196.223V245.452H405.048V196.223H411.447Z" fill="#A3A3A3"/>
<path d="M453.675 240.144V245.452H427.981V240.144H453.675ZM429.283 196.223V245.452H422.851V196.223H429.283ZM450.282 217.384V222.692H427.981V217.384H450.282ZM453.344 196.223V201.565H427.981V196.223H453.344Z" fill="#A3A3A3"/>
<path d="M283.524 417.904L283.136 417.881L282.793 417.823L282.461 417.718L282.165 417.58L281.902 417.406L281.65 417.185L281.445 416.93L281.25 416.629L281.091 416.281L280.965 415.91L275.058 396.36L274.978 396.21L274.898 396.071L274.807 395.955L274.715 395.851L274.624 395.758L274.521 395.688L274.419 395.63L274.304 395.596L274.19 395.572L274.076 395.561H225.703L225.589 395.572L225.474 395.596L225.36 395.63L225.257 395.688L225.155 395.758L225.063 395.851L224.971 395.955L224.88 396.071L224.8 396.21L224.72 396.36L219.008 415.91L218.882 416.281L218.722 416.629L218.539 416.93L218.322 417.185L218.083 417.406L217.808 417.58L217.511 417.718L217.191 417.823L216.837 417.881L216.46 417.904H191.473L191.245 417.892L191.028 417.881L190.823 417.846L190.628 417.812L190.446 417.754L190.274 417.684L190.114 417.614L189.966 417.522L189.828 417.417L189.714 417.301L189.6 417.139L189.508 416.966L189.44 416.768L189.394 416.571L189.36 416.351V415.899L189.394 415.644L189.44 415.377L189.508 415.111L231.997 280.254L232.124 279.883L232.283 279.535L232.466 279.234L232.683 278.979L232.923 278.758L233.197 278.585L233.495 278.446L233.815 278.342L234.168 278.284L234.545 278.26H265.427L265.804 278.284L266.158 278.342L266.479 278.446L266.775 278.585L267.049 278.758L267.289 278.979L267.506 279.234L267.689 279.535L267.849 279.883L267.986 280.254L310.464 415.111L310.532 415.274L310.567 415.366L310.589 415.459L310.612 415.563L310.624 415.656L310.646 415.772V415.876L310.658 415.992V416.108L310.635 416.444L310.578 416.756L310.464 417.024L310.316 417.255L310.121 417.452L309.881 417.614L309.596 417.741L309.276 417.834L308.91 417.881L308.499 417.904H283.524ZM231.792 372.615L231.77 372.847V373.044L231.781 373.229L231.827 373.38L231.895 373.519L231.986 373.624L232.1 373.705L232.238 373.762L232.397 373.809L232.581 373.82H267.198L267.415 373.809L267.609 373.762L267.758 373.705L267.883 373.624L267.986 373.519L268.043 373.38L268.077 373.229V373.044L268.043 372.847L267.986 372.615L250.277 313.374L250.243 313.224L250.197 313.096L250.152 312.98L250.095 312.887L250.038 312.818L249.981 312.772L249.912 312.749L249.843 312.737L249.763 312.749L249.695 312.772L249.615 312.783L249.547 312.795L249.409 312.865L249.352 312.923L249.238 313.061L249.192 313.154L249.147 313.258L249.101 313.374L231.792 372.615Z" fill="#A3A3A3"/>
<path d="M403.486 417.904L403.109 417.881L402.744 417.834L402.412 417.741L402.104 417.614L401.818 417.452L401.555 417.255L401.316 417.024L401.098 416.756L400.905 416.444L400.733 416.108L376.147 360.853L376.067 360.703L375.975 360.563L375.884 360.447L375.77 360.343L375.655 360.25L375.541 360.181L375.404 360.123L375.267 360.088L375.118 360.065L374.97 360.053H356.679L356.495 360.065L356.324 360.088L356.175 360.146L356.05 360.216L355.947 360.297L355.856 360.413L355.787 360.54L355.741 360.69L355.707 360.864L355.695 361.05V415.505L355.684 415.702L355.661 415.899L355.627 416.084L355.57 416.27L355.502 416.455L355.411 416.629L355.307 416.803L355.193 416.977L355.056 417.139L354.907 417.301L354.793 417.417L354.656 417.522L354.519 417.614L354.222 417.754L354.062 417.812L353.719 417.881L353.525 417.892L353.343 417.904H330.321L330.127 417.892L329.944 417.881L329.75 417.846L329.567 417.812L329.396 417.754L329.213 417.684L329.042 417.614L328.881 417.522L328.71 417.417L328.562 417.301L328.447 417.139L328.344 416.977L328.253 416.803L328.116 416.455L328.059 416.27L327.99 415.899L327.967 415.702V280.463L327.99 280.277L328.024 280.091L328.059 279.918L328.116 279.756L328.253 279.454L328.344 279.316L328.447 279.188L328.562 279.06L328.71 278.91L328.881 278.771L329.042 278.655L329.213 278.55L329.396 278.457L329.567 278.388L329.75 278.33L329.944 278.296L330.127 278.272L330.321 278.26H386.577L389.057 278.318L391.479 278.47L393.844 278.724L396.14 279.095L398.368 279.559L400.55 280.126L402.652 280.798L404.698 281.586L406.686 282.468L408.604 283.452L410.479 284.53L412.272 285.7L413.974 286.952L415.585 288.296L417.105 289.734L418.533 291.252L419.869 292.862L421.126 294.554L422.28 296.339L423.354 298.217L424.359 300.152L425.262 302.157L426.061 304.231L426.747 306.351L427.33 308.53L427.81 310.778L428.187 313.084L428.449 315.448L428.61 317.87L428.656 320.35L428.599 323.027L428.392 325.623L428.061 328.15L427.593 330.595L426.988 332.971L426.256 335.265L425.388 337.49L424.382 339.634L423.24 341.697L421.972 343.691L420.578 345.556L419.081 347.305L417.482 348.939L415.78 350.458L413.963 351.872L412.044 353.17L410.01 354.363L407.873 355.441L405.634 356.403L403.292 357.261L403.109 357.342L402.949 357.446L402.823 357.55L402.721 357.678L402.652 357.805L402.607 357.956L402.584 358.107L402.595 358.281L402.641 358.466L402.698 358.651L429.444 415.111L429.524 415.262L429.592 415.412L429.649 415.551L429.74 415.806L429.775 415.922L429.809 416.026L429.821 416.131L429.832 416.223L429.844 416.305L429.821 416.606L429.752 416.884L429.649 417.116L429.49 417.325L429.295 417.498L429.067 417.649L428.781 417.754L428.461 417.834L428.084 417.881L427.672 417.904H403.486ZM356.679 302.4L356.495 302.411L356.324 302.434L356.175 302.492L356.05 302.562L355.947 302.655L355.856 302.759L355.787 302.887L355.741 303.037L355.707 303.211L355.695 303.396V337.514L355.707 337.699L355.741 337.873L355.787 338.023L355.856 338.151L355.947 338.255L356.05 338.347L356.175 338.418L356.324 338.463L356.495 338.499L356.679 338.51H382.442L384.064 338.452L385.618 338.313L387.114 338.058L388.543 337.711L389.913 337.258L391.227 336.713L392.461 336.065L393.649 335.311L394.758 334.465L395.82 333.516L396.826 332.496L397.728 331.406L398.528 330.259L399.213 329.054L399.796 327.779L400.276 326.458L400.653 325.067L400.916 323.63L401.076 322.124L401.121 320.547L401.076 318.983L400.916 317.477L400.653 316.04L400.276 314.649L399.796 313.316L399.213 312.053L398.528 310.848L397.728 309.7L396.826 308.611L395.82 307.592L394.758 306.606L393.649 305.714L392.461 304.938L391.227 304.266L389.913 303.697L388.543 303.235L387.114 302.863L385.618 302.608L384.064 302.447L382.442 302.4H356.679Z" fill="#A3A3A3"/>
<path d="M524.236 417.904L523.859 417.881L523.505 417.834L523.162 417.741L522.853 417.614L522.568 417.452L522.305 417.255L522.066 417.024L521.848 416.756L521.654 416.444L521.483 416.108L496.908 360.853L496.816 360.703L496.736 360.563L496.633 360.447L496.531 360.343L496.417 360.25L496.29 360.181L496.165 360.123L496.028 360.088L495.879 360.065L495.72 360.053H477.429L477.245 360.065L477.086 360.088L476.937 360.146L476.8 360.216L476.697 360.297L476.606 360.413L476.537 360.54L476.491 360.69L476.457 360.864L476.445 361.05V415.702L476.423 415.899L476.377 416.084L476.32 416.27L476.252 416.455L476.172 416.629L476.068 416.803L475.943 416.977L475.818 417.139L475.668 417.301L475.543 417.417L475.418 417.522L475.269 417.614L475.132 417.684L474.972 417.754L474.812 417.812L474.469 417.881L474.286 417.892L474.093 417.904H451.082L450.694 417.881L450.328 417.812L450.146 417.754L449.803 417.614L449.631 417.522L449.471 417.417L449.312 417.301L449.197 417.139L449.094 416.977L448.935 416.629L448.866 416.455L448.774 416.084L448.74 415.899L448.717 415.505V280.66L448.729 280.463L448.74 280.277L448.774 280.091L448.82 279.918L448.866 279.756L448.935 279.604L449.014 279.454L449.094 279.316L449.197 279.188L449.312 279.06L449.471 278.91L449.631 278.771L449.803 278.655L449.974 278.55L450.146 278.457L450.328 278.388L450.512 278.33L450.694 278.296L450.888 278.272L451.082 278.26H507.327L509.818 278.318L512.24 278.47L514.594 278.724L516.89 279.095L519.129 279.559L521.3 280.126L523.402 280.798L525.447 281.586L527.435 282.468L529.354 283.452L531.24 284.53L533.033 285.7L534.724 286.952L536.335 288.296L537.855 289.734L539.294 291.252L540.631 292.862L541.876 294.554L543.041 296.339L544.104 298.217L545.109 300.152L546.012 302.157L546.811 304.231L547.497 306.351L548.091 308.53L548.56 310.778L548.937 313.084L549.199 315.448L549.36 317.87L549.417 320.35L549.348 323.027L549.142 325.623L548.811 328.15L548.343 330.595L547.737 332.971L547.006 335.265L546.138 337.49L545.132 339.634L544.002 341.697L542.733 343.691L541.339 345.556L539.843 347.305L538.243 348.939L536.53 350.458L534.713 351.872L532.794 353.17L530.76 354.363L528.634 355.441L526.395 356.403L524.041 357.261L523.859 357.342L523.711 357.446L523.573 357.55L523.482 357.678L523.402 357.805L523.357 357.956L523.345 358.107L523.357 358.281L523.391 358.466L523.459 358.651L550.205 415.111L550.342 415.412L550.399 415.551L550.456 415.679L550.49 415.806L550.536 415.922L550.582 416.131L550.593 416.223V416.305L550.57 416.606L550.502 416.884L550.399 417.116L550.251 417.325L550.056 417.498L549.817 417.649L549.531 417.754L549.211 417.834L548.845 417.881L548.434 417.904H524.236ZM477.429 302.4L477.245 302.411L477.086 302.434L476.937 302.492L476.8 302.562L476.697 302.655L476.606 302.759L476.537 302.887L476.491 303.037L476.457 303.211L476.445 303.396V337.514L476.457 337.699L476.491 337.873L476.537 338.023L476.606 338.151L476.697 338.255L476.8 338.347L476.937 338.418L477.086 338.463L477.245 338.499L477.429 338.51H503.203L504.814 338.452L506.379 338.313L507.875 338.058L509.304 337.711L510.675 337.258L511.977 336.713L513.222 336.065L514.399 335.311L515.519 334.465L516.57 333.516L517.576 332.496L518.478 331.406L519.278 330.259L519.975 329.054L520.557 327.779L521.026 326.458L521.403 325.067L521.666 323.63L521.825 322.124L521.882 320.547L521.825 318.983L521.666 317.477L521.403 316.04L521.026 314.649L520.557 313.316L519.975 312.053L519.278 310.848L518.478 309.7L517.576 308.611L516.57 307.592L515.519 306.606L514.399 305.714L513.222 304.938L511.977 304.266L510.675 303.697L509.304 303.235L507.875 302.863L506.379 302.608L504.814 302.447L503.203 302.4H477.429Z" fill="#A3A3A3"/>
<path d="M618.446 420.094L615.407 420.036L612.448 419.84L609.558 419.527L606.736 419.074L603.993 418.507L601.309 417.8L598.704 416.965L596.167 416.015L593.7 414.926L591.301 413.709L589.038 412.388L586.868 410.962L584.8 409.433L582.835 407.81L580.984 406.084L579.224 404.253L577.568 402.329L576.014 400.313L574.563 398.18L573.215 395.956L571.981 393.614L570.873 391.192L569.902 388.712L569.056 386.163L568.348 383.544L567.754 380.855L567.309 378.098L566.977 375.281L566.782 372.384L566.725 369.429V326.736L566.782 323.816L566.977 320.965L567.309 318.183L567.754 315.472L568.348 312.819L569.056 310.245L569.902 307.731L570.873 305.285L571.981 302.91L573.215 300.604L574.563 298.378L576.014 296.269L577.568 294.253L579.224 292.341L580.984 290.534L582.835 288.83L584.8 287.23L586.868 285.735L589.038 284.333L591.301 283.047L593.7 281.842L596.167 280.752L598.704 279.79L601.309 278.968L603.993 278.261L606.736 277.693L609.558 277.241L612.448 276.917L615.407 276.731L618.446 276.662L621.508 276.731L624.502 276.917L627.415 277.241L630.248 277.693L633.002 278.261L635.675 278.968L638.268 279.79L640.782 280.752L643.227 281.842L645.581 283.047L647.888 284.333L650.093 285.735L652.184 287.23L654.172 288.83L656.057 290.534L657.828 292.341L659.508 294.253L661.061 296.269L662.524 298.378L663.872 300.604L665.106 302.91L666.214 305.285L667.185 307.731L668.03 310.245L668.739 312.819L669.321 315.472L669.778 318.183L670.11 320.965L670.304 323.816L670.361 326.736V369.429L670.304 372.384L670.11 375.281L669.778 378.098L669.321 380.855L668.739 383.544L668.03 386.163L667.185 388.712L666.214 391.192L665.106 393.614L663.872 395.956L662.524 398.227L661.061 400.382L659.508 402.433L657.828 404.381L656.057 406.234L654.172 407.973L652.184 409.618L650.093 411.148L647.888 412.585L645.581 413.918L643.227 415.088L640.782 416.143L638.268 417.07L635.675 417.869L633.002 418.553L630.248 419.11L627.415 419.538L624.502 419.851L621.508 420.036L618.446 420.094ZM618.446 395.956L620.571 395.885L622.605 395.677L624.559 395.329L626.433 394.843L628.226 394.217L629.94 393.441L631.562 392.537L633.105 391.494L634.567 390.3L635.95 388.979L637.218 387.53L638.36 386L639.354 384.378L640.222 382.663L640.965 380.844L641.57 378.943L642.038 376.95L642.37 374.864L642.565 372.697L642.633 370.425V326.539L642.565 324.268L642.37 322.089L642.038 320.003L641.57 318.022L640.965 316.109L640.222 314.301L639.354 312.587L638.36 310.964L637.218 309.423L635.95 307.986L634.601 306.618L633.173 305.401L631.642 304.323L630.031 303.385L628.329 302.597L626.535 301.948L624.65 301.45L622.674 301.09L620.606 300.87L618.446 300.801L616.321 300.87L614.287 301.09L612.323 301.45L610.449 301.948L608.655 302.597L606.953 303.385L605.331 304.323L603.777 305.401L602.314 306.618L600.943 307.986L599.709 309.423L598.601 310.964L597.63 312.587L596.785 314.301L596.076 316.109L595.494 318.022L595.037 320.003L594.705 322.089L594.511 324.268L594.454 326.539V370.425L594.511 372.697L594.705 374.864L595.037 376.95L595.494 378.943L596.076 380.844L596.785 382.663L597.63 384.378L598.601 386L599.709 387.53L600.943 388.979L602.314 390.3L603.777 391.494L605.331 392.537L606.953 393.441L608.655 394.217L610.449 394.843L612.323 395.329L614.287 395.677L616.321 395.885L618.446 395.956Z" fill="#A3A3A3"/>
<path d="M722.092 417.904L721.669 417.881L721.281 417.823L720.927 417.718L720.607 417.58L720.322 417.406L720.058 417.185L719.83 416.93L719.636 416.629L719.465 416.281L719.338 415.91L684.527 280.856L684.333 280.057L684.344 279.72L684.413 279.408L684.527 279.142L684.676 278.91L684.87 278.713L685.11 278.55L685.384 278.423L685.715 278.33L686.081 278.284L686.492 278.26H710.873L711.261 278.284L711.604 278.342L711.935 278.446L712.232 278.585L712.495 278.758L712.746 278.979L712.952 279.234L713.146 279.535L713.307 279.883L713.432 280.254L732.123 361.444L732.157 361.594L732.203 361.734L732.249 361.85L732.306 361.954L732.363 362.047L732.42 362.116L732.489 362.174L732.557 362.208L732.626 362.232L732.706 362.244L732.786 362.232L732.854 362.208L732.923 362.174L732.991 362.116L733.049 362.047L733.106 361.954L733.163 361.85L733.209 361.734L733.254 361.594L733.3 361.444L751.386 280.45L751.523 280.046L751.683 279.662L751.865 279.338L752.083 279.048L752.322 278.805L752.597 278.608L752.894 278.457L753.213 278.354L753.568 278.284L753.945 278.26H777.743L778.166 278.284L778.543 278.342L778.896 278.446L779.228 278.585L779.514 278.758L779.777 278.979L780.005 279.234L780.199 279.535L780.359 279.883L780.496 280.254L800.17 361.444L800.204 361.56L800.25 361.676L800.296 361.768L800.353 361.861L800.467 362.023L800.536 362.093L800.604 362.151L800.673 362.197L800.753 362.244L800.832 362.232L800.902 362.208L800.97 362.174L801.038 362.116L801.095 362.047L801.152 361.954L801.209 361.85L801.255 361.734L801.301 361.594L801.347 361.444L819.432 280.45L819.57 280.046L819.729 279.662L819.913 279.338L820.129 279.048L820.37 278.805L820.643 278.608L820.941 278.457L821.261 278.354L821.615 278.284L821.992 278.26H845.207L845.721 278.284L846.167 278.365L846.555 278.492L846.864 278.678L847.115 278.91L847.298 279.2L847.423 279.535L847.469 279.918L847.446 280.358L847.366 280.856L815.114 415.91L814.977 416.281L814.817 416.629L814.611 416.93L814.382 417.185L814.132 417.406L813.834 417.58L813.514 417.718L813.16 417.823L812.771 417.881L812.36 417.904H788.951L788.574 417.881L788.22 417.823L787.9 417.718L787.602 417.58L787.329 417.406L787.088 417.185L786.872 416.93L786.688 416.629L786.529 416.281L786.403 415.91L766.341 329.529L766.295 329.378L766.25 329.239L766.204 329.123L766.147 329.019L766.089 328.926L766.032 328.857L765.964 328.799L765.895 328.764L765.827 328.741L765.747 328.73L765.666 328.741L765.598 328.764L765.53 328.799L765.461 328.857L765.404 328.926L765.347 329.019L765.29 329.123L765.244 329.239L765.198 329.378L765.153 329.529L746.473 415.714L746.382 416.12L746.244 416.502L746.084 416.826L745.879 417.116L745.639 417.359L745.364 417.556L745.057 417.707L744.714 417.812L744.337 417.881L743.914 417.904H722.092Z" fill="#A3A3A3"/>
</svg>
