<svg width="1265" height="582" viewBox="0 0 1265 582" fill="none" xmlns="http://www.w3.org/2000/svg">
<path d="M876.89 214.29H855.385V367.454H876.89V322.015L889.672 308.05L921.822 367.454H944.606L903.72 292.534L944.179 248.425H917.992L876.89 292.977V214.29ZM1163.3 345.067H1127.53V299.406H1163.3C1175.23 299.406 1183.74 308.494 1183.74 321.571C1183.74 335.314 1175.23 345.067 1163.3 345.067ZM702.704 248.425V326.004C702.704 338.639 692.698 347.505 678.431 347.505C664.163 347.505 654.155 338.639 654.155 326.004V248.425H630.519V323.788C630.519 350.165 650.961 369.892 678.431 369.892C705.898 369.892 726.341 350.165 726.341 323.788V248.425H702.704ZM765.521 293.642C765.521 278.792 774.893 268.152 791.079 268.152C803.212 268.152 811.948 276.796 815.352 288.766H839.625C836.221 264.162 816.631 245.765 791.079 245.765C763.822 245.765 741.884 267.043 741.884 295.859V319.798C741.884 348.392 763.822 369.892 790.863 369.892C817.91 369.892 837.71 350.165 839.841 324.01H815.988C813.863 337.752 804.708 347.505 790.863 347.505C774.683 347.505 765.521 336.866 765.521 322.015V293.642ZM1127.53 277.018V236.898H1156.06C1166.49 236.898 1173.73 245.543 1173.73 257.513C1173.73 269.038 1166.49 277.018 1156.06 277.018H1127.53ZM1024.25 345.067H993.801V236.898H1024.25C1047.25 236.898 1063.43 259.285 1063.43 290.983C1063.43 322.68 1047.25 345.067 1024.25 345.067ZM551.518 345.067H521.067V236.898H551.518C574.516 236.898 590.699 259.285 590.699 290.983C590.699 322.68 574.516 345.067 551.518 345.067ZM1182.04 284.111C1189.49 279.9 1197.37 268.373 1197.37 257.513C1197.37 232.908 1179.69 214.511 1156.06 214.511H1103.89V367.454H1163.3C1188.43 367.454 1207.38 347.727 1207.38 321.571C1207.38 302.509 1195.24 286.549 1182.04 284.111ZM1024.25 214.511H970.164V367.454H1024.25C1060.24 367.454 1087.07 334.649 1087.07 290.983C1087.07 247.317 1060.24 214.511 1024.25 214.511ZM548.324 214.511H497.43V367.454H548.324C586.014 367.454 614.336 334.649 614.336 290.983C614.336 247.317 586.014 214.511 548.324 214.511Z" fill="#A3A3A3"/>
<path d="M349.838 330.069C370.542 330.069 387.315 312.609 387.315 291.057C387.315 269.505 370.542 251.772 349.838 251.772H300.566V330.069H349.838Z" fill="#818194"/>
<path d="M349.838 330.069C370.542 330.069 387.315 312.609 387.315 291.057C387.315 269.505 370.542 251.772 349.838 251.772H300.566V330.069H349.838Z" fill="#A3A3A3"/>
<path d="M57.6179 291C57.6179 351.291 104.531 400.124 162.451 400.124C220.371 400.124 267.283 351.291 267.283 291C267.283 230.71 220.371 181.876 162.451 181.876C104.531 181.876 57.6179 230.71 57.6179 291Z" fill="#818194"/>
<path d="M57.6179 291C57.6179 351.291 104.531 400.124 162.451 400.124C220.371 400.124 267.283 351.291 267.283 291C267.283 230.71 220.371 181.876 162.451 181.876C104.531 181.876 57.6179 230.71 57.6179 291Z" fill="#A3A3A3"/>
</svg>
